<?xml version="1.0" standalone="no"?><!DOCTYPE svg PUBLIC "-//W3C//DTD SVG 1.1//EN" "http://www.w3.org/Graphics/SVG/1.1/DTD/svg11.dtd"><svg t="1633425585152" class="icon" viewBox="0 0 1024 1024" version="1.1" xmlns="http://www.w3.org/2000/svg" p-id="2493" xmlns:xlink="http://www.w3.org/1999/xlink" width="16" height="16"><defs><style type="text/css"></style></defs><path d="M95.381333 822.314667c-7.466667 37.12 41.088 58.154667 63.104 27.285333 94.229333-132.010667 223.146667-196.714667 408.96-203.818667v140.458667a35.157333 35.157333 0 0 0 59.989334 24.896l300.928-301.013333a35.157333 35.157333 0 0 0 0-49.728l-300.928-300.8a35.157333 35.157333 0 0 0-59.989334 24.896v142.08C302.506667 375.765333 147.776 559.893333 95.36 822.293333z m542.378667-552.938667l215.914667 215.914667-215.893334 216.042666V609.92c0-19.413333-15.765333-35.178667-35.178666-35.178667-164.138667 0-293.824 39.104-396.16 121.322667 70.037333-166.741333 201.429333-276.181333 400.661333-304.810667a35.157333 35.157333 0 0 0 30.656-35.434666v-86.506667 0.064z" p-id="2494"></path></svg>