<?xml version="1.0" standalone="no"?><!DOCTYPE svg PUBLIC "-//W3C//DTD SVG 1.1//EN" "http://www.w3.org/Graphics/SVG/1.1/DTD/svg11.dtd"><svg t="1633425639637" class="icon" viewBox="0 0 1024 1024" version="1.1" xmlns="http://www.w3.org/2000/svg" p-id="4640" xmlns:xlink="http://www.w3.org/1999/xlink" width="16" height="16"><defs><style type="text/css"></style></defs><path d="M532.48 296.96V175.44192c0-0.28672 0.28672-0.58368 0.28672-0.8704 0-32.54272-26.03008-57.63072-57.96864-57.63072-20.736 0-31.58016 13.01504-48.72192 26.5728 0-0.02048 0-0.03072 0.02048-0.04096L82.8416 390.58432c-20.85888 14.14144-35.44064 33.46432-35.44064 59.02336C47.40096 478.08512 65.44384 491.52 90.35776 512H90.3168l346.64448 249.50784c-0.02048-0.02048-0.02048-0.06144-0.04096-0.06144 10.19904 9.17504 23.296 14.75584 37.98016 14.75584 31.93856 0 57.57952-26.15296 57.57952-58.68544v0.94208c0 0.27648 0.50176-1.65888 0.50176-1.65888H532.48V578.56C812.36992 651.93984 872.11008 819.2 872.11008 819.2 931.84 960.83968 972.8 807.24992 972.8 807.24992 1074.35008 424.0896 532.48 296.96 532.48 296.96z m379.70944 446.32064c-42.94656-65.77152-144.61952-177.19296-361.53344-234.05568L460.8 485.66272v204.6976L134.35904 455.38304s-6.46144-5.29408-8.78592-7.23968L460.8 206.81728v146.95424l55.30624 12.97408c2.57024 0.6144 267.19232 65.0752 363.78624 226.5088 27.66848 46.21312 38.35904 95.63136 32.29696 150.02624z" fill="#1A1A1A" p-id="4641"></path></svg>